<svg xmlns="http://www.w3.org/2000/svg" fill="none" viewBox="0 0 345 72"><path fill="#E22526" d="M0 13.5C0 6.044 6.044 0 13.5 0h45C65.956 0 72 6.044 72 13.5v45C72 65.956 65.956 72 58.5 72h-45C6.044 72 0 65.956 0 58.5v-45Z"/><path fill="#B51E1E" d="M13.5 0C6.044 0 0 6.044 0 13.5v.392L67.308 3.268A13.447 13.447 0 0 0 58.5 0h-45Zm55.197 4.652L56.35 72h2.15C65.956 72 72 65.956 72 58.5v-45c0-3.384-1.246-6.478-3.303-8.848Z"/><path fill="#fff" d="M20.266 38.41c0-1.197.189-2.32.567-3.37a8.09 8.09 0 0 1 1.7-2.773 7.933 7.933 0 0 1 2.678-1.89c1.05-.462 2.247-.693 3.591-.693.882 0 1.69.084 2.426.252a10.99 10.99 0 0 1 2.142.662l-.977 3.748a11.83 11.83 0 0 0-1.449-.44 7.573 7.573 0 0 0-1.764-.19c-1.386 0-2.425.43-3.118 1.292-.672.86-1.008 1.995-1.008 3.402 0 1.49.315 2.646.945 3.465.65.819 1.774 1.228 3.37 1.228.567 0 1.176-.052 1.827-.157a7.767 7.767 0 0 0 1.796-.504l.661 3.843c-.546.23-1.228.43-2.047.598-.82.168-1.722.252-2.71.252-1.511 0-2.813-.22-3.905-.661-1.092-.462-1.995-1.082-2.71-1.859a7.492 7.492 0 0 1-1.543-2.74c-.315-1.071-.472-2.226-.472-3.465Zm31.468-13.545v4.19h-6.583v17.64h-4.914v-17.64h-6.584v-4.19h18.081Z"/><path fill="currentColor" fill-rule="evenodd" d="m108.739 19.904-1.772 10.051h-6.152c-5.74 0-11.21 4.65-12.224 10.39l-.43 2.443c-1.009 5.74 2.82 10.39 8.56 10.39h5.131c4.183 0 8.168-3.387 8.904-7.57l4.726-26.788-6.743 1.084Zm-4.365 24.756c-.227 1.292-1.39 2.344-2.682 2.344h-3.117c-2.58 0-4.306-2.094-3.854-4.679l.27-1.523c.457-2.58 2.918-4.678 5.498-4.678h5.39l-1.505 8.536Z" clip-rule="evenodd"/><path fill="currentColor" d="M156.118 53.179h6.385l4.037-22.902h-6.385l-4.037 22.902Zm.213-19.916v-.005l.48-2.717c-6.552-1.688-11.656.058-13.734.92l-3.832 21.723h6.389l3.11-17.643c.959-.191 4.08-.49 7.105.45l.482-2.728Z"/><path fill="currentColor" fill-rule="evenodd" d="M130.914 29.953h-4.966c-4.844 0-9.461 3.924-10.314 8.767l-1.005 5.692c-.853 4.844 2.377 8.768 7.221 8.768h10.573l1.085-6.155h-9.937c-1.613 0-2.693-1.306-2.405-2.924l.033-.193h16.02l.915-5.188c.854-4.843-2.377-8.767-7.22-8.767Zm.811 8.277-.038.33h-9.526l.052-.293c.287-1.613 1.759-3.032 3.376-3.032h3.721c1.599 0 2.679 1.396 2.415 2.995Z" clip-rule="evenodd"/><path fill="currentColor" d="M177.639 45.383c2.899-5.216 6.095-12.06 7.427-15.106h6.395c-2.177 5.788-7.165 15.633-11.998 22.902h-6.39c-2.218-6.919-3.65-16.558-3.924-22.902h6.391c.115 2.07 1.041 9.744 2.099 15.106Zm20.486-3.808c0-1.795.284-3.48.851-5.055.598-1.607 1.449-2.993 2.551-4.158 1.103-1.197 2.442-2.142 4.017-2.835 1.575-.693 3.37-1.04 5.386-1.04 1.323 0 2.536.126 3.638.378a16.43 16.43 0 0 1 3.213.993l-1.464 5.622a17.752 17.752 0 0 0-2.174-.661c-.787-.19-1.669-.284-2.646-.284-2.079 0-3.638.646-4.678 1.938-1.008 1.291-1.512 2.992-1.512 5.102 0 2.237.473 3.97 1.418 5.198.976 1.228 2.662 1.843 5.056 1.843.85 0 1.764-.079 2.74-.236.977-.158 1.874-.41 2.693-.757l.993 5.765c-.819.346-1.843.646-3.072.898-1.228.252-2.583.378-4.063.378-2.268 0-4.221-.331-5.859-.992-1.638-.694-2.993-1.623-4.064-2.788-1.039-1.166-1.811-2.536-2.315-4.111-.472-1.607-.709-3.339-.709-5.198Zm47.203-20.317v6.284h-9.875v26.46h-7.371v-26.46h-9.875v-6.284h27.121Z"/><path fill="currentColor" d="M258.933 35.386a37.363 37.363 0 0 0-2.221-.473 12.623 12.623 0 0 0-2.741-.283c-.441 0-.976.047-1.606.142-.599.063-1.055.141-1.37.236v18.994h-7.041v-23.53c1.26-.441 2.741-.85 4.442-1.229 1.732-.41 3.654-.614 5.764-.614.378 0 .835.031 1.371.095.535.031 1.071.094 1.606.189.536.063 1.071.157 1.607.283.535.095.992.22 1.37.378l-1.181 5.812Zm11.628 13.702c.693 0 1.355-.016 1.985-.047a13.81 13.81 0 0 0 1.512-.142V43.56a13.03 13.03 0 0 0-1.276-.189 14.21 14.21 0 0 0-1.559-.095c-.662 0-1.292.048-1.89.142a4.456 4.456 0 0 0-1.512.425c-.441.221-.788.52-1.04.898s-.378.85-.378 1.418c0 1.102.362 1.874 1.087 2.315.756.41 1.78.614 3.071.614Zm-.567-20.6c2.079 0 3.812.236 5.198.708 1.386.473 2.488 1.15 3.307 2.032.851.882 1.449 1.953 1.796 3.213.346 1.26.519 2.661.519 4.205v14.648c-1.008.22-2.409.472-4.205.756-1.795.315-3.969.472-6.52.472-1.607 0-3.072-.142-4.395-.425-1.291-.284-2.409-.74-3.354-1.37a6.557 6.557 0 0 1-2.174-2.552c-.504-1.04-.756-2.315-.756-3.827 0-1.45.284-2.678.851-3.686a6.923 6.923 0 0 1 2.362-2.41c.977-.598 2.095-1.023 3.355-1.275a17.813 17.813 0 0 1 3.922-.425c.913 0 1.716.047 2.409.141.725.063 1.308.158 1.749.284v-.662c0-1.197-.363-2.157-1.087-2.882-.725-.724-1.985-1.087-3.78-1.087a22.11 22.11 0 0 0-3.544.284c-1.165.157-2.173.393-3.024.709l-.898-5.67c.41-.127.914-.253 1.512-.378.63-.158 1.308-.284 2.032-.378a24.81 24.81 0 0 1 2.268-.284 21.418 21.418 0 0 1 2.457-.142Zm20.825 12.898c0 2.174.488 3.922 1.465 5.245.976 1.323 2.425 1.985 4.347 1.985.63 0 1.212-.016 1.748-.047a22.89 22.89 0 0 0 1.323-.19V35.575c-.441-.284-1.024-.52-1.748-.709a8.048 8.048 0 0 0-2.127-.283c-3.339 0-5.008 2.267-5.008 6.803ZM306.742 53.2c-.63.189-1.354.378-2.173.567-.819.157-1.686.3-2.599.425a36.61 36.61 0 0 1-2.741.284c-.913.094-1.795.142-2.646.142-2.047 0-3.874-.3-5.481-.898-1.606-.599-2.961-1.45-4.063-2.552-1.103-1.134-1.953-2.488-2.552-4.063-.567-1.607-.85-3.402-.85-5.387 0-2.016.252-3.827.756-5.434.504-1.638 1.228-3.023 2.173-4.157a9.347 9.347 0 0 1 3.45-2.6c1.386-.598 2.961-.897 4.725-.897.976 0 1.842.095 2.598.284.788.189 1.575.456 2.363.803V18.47l7.04-1.134V53.2Zm3.049-11.436c0-2.205.33-4.126.992-5.764.693-1.67 1.591-3.056 2.693-4.158a11.172 11.172 0 0 1 3.78-2.504c1.449-.567 2.93-.85 4.442-.85 3.528 0 6.315 1.086 8.363 3.26 2.047 2.141 3.071 5.307 3.071 9.497 0 .41-.016.866-.047 1.37a77.51 77.51 0 0 1-.095 1.276h-15.97c.157 1.449.835 2.599 2.032 3.449 1.197.85 2.803 1.276 4.819 1.276 1.292 0 2.552-.11 3.78-.331 1.26-.252 2.284-.551 3.071-.898l.945 5.718c-.378.189-.882.378-1.512.567a16.49 16.49 0 0 1-2.126.472c-.756.157-1.575.284-2.457.378a24.82 24.82 0 0 1-2.646.142c-2.236 0-4.189-.331-5.859-.992-1.638-.662-3.008-1.56-4.111-2.694-1.071-1.165-1.874-2.535-2.409-4.11-.504-1.576-.756-3.276-.756-5.104Zm16.537-2.693a6.581 6.581 0 0 0-.331-1.748 3.89 3.89 0 0 0-.803-1.512c-.346-.441-.803-.803-1.37-1.087-.536-.283-1.213-.425-2.032-.425-.787 0-1.465.142-2.032.425a3.945 3.945 0 0 0-1.417 1.04c-.378.44-.677.96-.898 1.559-.189.567-.331 1.15-.425 1.748h9.308Zm24.853-3.685c-.63-.158-1.37-.315-2.221-.473a12.613 12.613 0 0 0-2.74-.283c-.441 0-.977.047-1.607.142-.598.063-1.055.141-1.37.236v18.994h-7.04v-23.53c1.26-.441 2.74-.85 4.441-1.229 1.733-.41 3.654-.614 5.765-.614.378 0 .834.031 1.37.095.535.031 1.071.094 1.606.189.536.063 1.071.157 1.607.283.535.095.992.22 1.37.378l-1.181 5.812Z"/></svg>