<svg xmlns="http://www.w3.org/2000/svg" width="72" height="72" fill="none"><path fill="#E22526" d="M0 13.5C0 6.044 6.044 0 13.5 0h45C65.956 0 72 6.044 72 13.5v45C72 65.956 65.956 72 58.5 72h-45C6.044 72 0 65.956 0 58.5v-45Z"/><path fill="#B51E1E" d="M13.5 0C6.044 0 0 6.044 0 13.5v.392L67.308 3.268A13.447 13.447 0 0 0 58.5 0h-45ZM68.697 4.652 56.35 72h2.15C65.956 72 72 65.956 72 58.5v-45c0-3.384-1.246-6.478-3.303-8.848Z"/><path fill="#fff" d="M20.266 38.41c0-1.197.189-2.32.567-3.37a8.09 8.09 0 0 1 1.7-2.773 7.933 7.933 0 0 1 2.678-1.89c1.05-.462 2.247-.693 3.591-.693.882 0 1.69.084 2.426.252.735.147 1.449.368 2.142.662l-.977 3.748a11.83 11.83 0 0 0-1.449-.44 7.573 7.573 0 0 0-1.764-.19c-1.386 0-2.425.43-3.118 1.292-.672.86-1.008 1.995-1.008 3.402 0 1.49.315 2.646.945 3.465.65.819 1.774 1.228 3.37 1.228.567 0 1.176-.052 1.827-.157a7.767 7.767 0 0 0 1.796-.504l.661 3.843c-.546.23-1.228.43-2.047.598-.82.168-1.722.252-2.71.252-1.511 0-2.813-.22-3.905-.661-1.092-.462-1.995-1.082-2.71-1.859a7.492 7.492 0 0 1-1.543-2.74c-.315-1.071-.472-2.226-.472-3.465ZM51.734 24.865v4.19h-6.583v17.64h-4.914v-17.64h-6.584v-4.19h18.081Z"/></svg>