<svg width="14" height="16" fill="none" xmlns="http://www.w3.org/2000/svg"><path d="M6.99 15.949H4.78c-1.333 0-2.503-.52-3.296-1.464-.808-.963-1.121-2.24-.883-3.597l.185-1.052C1.263 7.141 3.845 4.95 6.543 4.95h2.23L9.523.684l3.95-.635-2.158 12.227c-.356 2.025-2.298 3.673-4.327 3.673Zm-.447-10c-2.236 0-4.376 1.822-4.772 4.06l-.184 1.052c-.187 1.06.049 2.048.664 2.78.599.714 1.497 1.108 2.529 1.108h2.21c1.566 0 3.065-1.278 3.342-2.847L12.245 1.26l-1.86.299-.773 4.39h-3.07Zm.378 7.341H5.578c-.681 0-1.282-.268-1.693-.756-.417-.497-.58-1.153-.46-1.844l.117-.657c.242-1.362 1.498-2.428 2.86-2.428H9.32l-.751 4.263c-.143.811-.851 1.422-1.647 1.422Zm-.519-4.685c-.862 0-1.721.733-1.876 1.602l-.115.656c-.07.395.016.76.24 1.027.217.258.546.4.927.4H6.92c.302 0 .605-.273.662-.595v-.001l.545-3.089H6.402Z" fill="#333"/></svg>