<svg width="120" height="120" fill="none" xmlns="http://www.w3.org/2000/svg"><path fill-rule="evenodd" clip-rule="evenodd" d="M6 36a6 6 0 0 0-6 6v72a6 6 0 0 0 6 6h84a6 6 0 0 0 6-6V42a6 6 0 0 0-6-6H6Zm8.66 19.733a2.9 2.9 0 0 1 1.027-1.26c.45-.307.975-.471 1.512-.473h61.602a2.693 2.693 0 0 1 1.512.473 2.9 2.9 0 0 1 1.027 1.26L49.707 81.798A2.674 2.674 0 0 1 48 82.42c-.62 0-1.22-.219-1.707-.622L14.66 55.733Zm-.26 7.356v29.764l17.961-14.97L14.4 63.09Zm1.282 38.413c.451.31.978.477 1.517.481l61.602.017a2.715 2.715 0 0 0 1.517-.482c.452-.31.81-.75 1.03-1.268L59.082 81.665l-5.93 4.885a8.024 8.024 0 0 1-5.124 1.87 8.024 8.024 0 0 1-5.125-1.87l-5.93-4.885-22.32 18.569c.22.517.577.957 1.029 1.268ZM81.6 92.845V63.088L63.639 77.884 81.6 92.844Z" fill="#85ACB0"/><path d="M90 60c16.569 0 30-13.431 30-30 0-16.569-13.431-30-30-30-16.569 0-30 13.431-30 30 0 16.569 13.431 30 30 30Z" fill="#FF444F" style="mix-blend-mode:multiply"/><path d="M76 38.167V44h5.832l17.203-17.202-5.833-5.833L76 38.167Zm27.545-15.88a1.548 1.548 0 0 0 0-2.193l-3.64-3.64a1.55 1.55 0 0 0-2.192 0l-2.847 2.847 5.833 5.833 2.846-2.846Z" fill="#fff"/></svg>