<svg width="133" height="32" viewBox="0 0 133 32" fill="none" xmlns="http://www.w3.org/2000/svg">
    <path
        d="M5.99992 0C2.68625 0 0 2.68625 0 5.99992V6.17424L29.9141 1.45266C28.8633 0.547339 27.4954 0 25.9996 0H5.99992Z"
        fill="#2A3052" />
    <path
        d="M30.5315 2.06772L25.044 31.9996H25.9996C29.3133 31.9996 31.9996 29.3133 31.9996 25.9996V5.99992C31.9996 4.4957 31.446 3.12078 30.5315 2.06772Z"
        fill="#2A3052" />
    <path fill-rule="evenodd" clip-rule="evenodd"
        d="M25.044 31.9996L5.99992 32C2.68625 32 0 29.3137 0 26.0001V6.17424L29.9141 1.45266C30.1344 1.64252 30.3408 1.84812 30.5315 2.06772L25.044 31.9996Z"
        fill="#384177" />
    <path
        d="M11.0517 20.97C10.5197 20.97 9.98766 20.9514 9.45566 20.914C8.93299 20.886 8.38699 20.8114 7.81766 20.69V11.282C8.26566 11.198 8.75566 11.1374 9.28766 11.1C9.81966 11.0534 10.3143 11.03 10.7717 11.03C11.3877 11.03 11.9523 11.0767 12.4657 11.17C12.9883 11.254 13.4363 11.4034 13.8097 11.618C14.183 11.8327 14.4723 12.1174 14.6777 12.472C14.8923 12.8174 14.9997 13.2467 14.9997 13.76C14.9997 14.5347 14.6263 15.146 13.8797 15.594C14.4957 15.8274 14.9157 16.1447 15.1397 16.546C15.3637 16.9474 15.4757 17.4 15.4757 17.904C15.4757 18.9214 15.1023 19.6867 14.3557 20.2C13.6183 20.7134 12.517 20.97 11.0517 20.97ZM9.94566 16.616V19.122C10.1043 19.1407 10.277 19.1547 10.4637 19.164C10.6503 19.1734 10.8557 19.178 11.0797 19.178C11.733 19.178 12.2603 19.0847 12.6617 18.898C13.063 18.7114 13.2637 18.366 13.2637 17.862C13.2637 17.414 13.0957 17.0967 12.7597 16.91C12.4237 16.714 11.943 16.616 11.3177 16.616H9.94566ZM9.94566 14.95H11.0097C11.6817 14.95 12.1623 14.866 12.4517 14.698C12.741 14.5207 12.8857 14.2407 12.8857 13.858C12.8857 13.466 12.7363 13.1907 12.4377 13.032C12.139 12.8734 11.7003 12.794 11.1217 12.794C10.935 12.794 10.7343 12.7987 10.5197 12.808C10.305 12.808 10.1137 12.8174 9.94566 12.836V14.95Z"
        fill="white" />
    <path
        d="M19.7579 20.97C19.2259 20.97 18.6939 20.9514 18.1619 20.914C17.6392 20.886 17.0932 20.8114 16.5239 20.69V11.282C16.9719 11.198 17.4619 11.1374 17.9939 11.1C18.5259 11.0534 19.0206 11.03 19.4779 11.03C20.0939 11.03 20.6586 11.0767 21.1719 11.17C21.6946 11.254 22.1426 11.4034 22.5159 11.618C22.8892 11.8327 23.1786 12.1174 23.3839 12.472C23.5986 12.8174 23.7059 13.2467 23.7059 13.76C23.7059 14.5347 23.3326 15.146 22.5859 15.594C23.2019 15.8274 23.6219 16.1447 23.8459 16.546C24.0699 16.9474 24.1819 17.4 24.1819 17.904C24.1819 18.9214 23.8086 19.6867 23.0619 20.2C22.3246 20.7134 21.2232 20.97 19.7579 20.97ZM18.6519 16.616V19.122C18.8106 19.1407 18.9832 19.1547 19.1699 19.164C19.3566 19.1734 19.5619 19.178 19.7859 19.178C20.4392 19.178 20.9666 19.0847 21.3679 18.898C21.7692 18.7114 21.9699 18.366 21.9699 17.862C21.9699 17.414 21.8019 17.0967 21.4659 16.91C21.1299 16.714 20.6492 16.616 20.0239 16.616H18.6519ZM18.6519 14.95H19.7159C20.3879 14.95 20.8686 14.866 21.1579 14.698C21.4472 14.5207 21.5919 14.2407 21.5919 13.858C21.5919 13.466 21.4426 13.1907 21.1439 13.032C20.8452 12.8734 20.4066 12.794 19.8279 12.794C19.6412 12.794 19.4406 12.7987 19.2259 12.808C19.0112 12.808 18.8199 12.8174 18.6519 12.836V14.95Z"
        fill="white" />
    <path
        d="M44.0864 22.2897C43.2464 22.2897 42.3854 22.2547 41.5034 22.1847C40.6214 22.1147 39.8234 22.0027 39.1094 21.8487L42.4694 7.77865C43.2674 7.62465 44.1004 7.51965 44.9684 7.46365C45.8504 7.40765 46.6554 7.37965 47.3834 7.37965C48.2234 7.37965 48.9444 7.47065 49.5464 7.65265C50.1624 7.82065 50.6594 8.05165 51.0374 8.34565C51.4294 8.63965 51.7164 8.98965 51.8984 9.39565C52.0944 9.78765 52.1924 10.2077 52.1924 10.6557C52.1924 10.9637 52.1574 11.2857 52.0874 11.6217C52.0314 11.9577 51.9054 12.2937 51.7094 12.6297C51.5274 12.9517 51.2684 13.2597 50.9324 13.5537C50.6104 13.8477 50.1834 14.1137 49.6514 14.3517C50.2814 14.6317 50.7434 15.0167 51.0374 15.5067C51.3314 15.9827 51.4784 16.5147 51.4784 17.1027C51.4784 17.7747 51.3454 18.4257 51.0794 19.0557C50.8134 19.6717 50.3864 20.2247 49.7984 20.7147C49.2104 21.1907 48.4474 21.5757 47.5094 21.8697C46.5714 22.1497 45.4304 22.2897 44.0864 22.2897ZM43.7924 15.7377L42.8894 19.5177C43.1134 19.5597 43.3934 19.5947 43.7294 19.6227C44.0794 19.6367 44.4014 19.6437 44.6954 19.6437C45.1154 19.6437 45.5284 19.6157 45.9344 19.5597C46.3544 19.4897 46.7254 19.3707 47.0474 19.2027C47.3834 19.0347 47.6564 18.8037 47.8664 18.5097C48.0764 18.2157 48.1814 17.8377 48.1814 17.3757C48.1814 17.1797 48.1394 16.9837 48.0554 16.7877C47.9854 16.5917 47.8664 16.4167 47.6984 16.2627C47.5304 16.1087 47.3064 15.9827 47.0264 15.8847C46.7604 15.7867 46.4384 15.7377 46.0604 15.7377H43.7924ZM44.4014 13.2807H46.4594C47.2994 13.2807 47.9224 13.0987 48.3284 12.7347C48.7484 12.3707 48.9584 11.9367 48.9584 11.4327C48.9584 11.1667 48.8954 10.9427 48.7694 10.7607C48.6574 10.5647 48.5034 10.4107 48.3074 10.2987C48.1114 10.1867 47.8874 10.1097 47.6354 10.0677C47.3834 10.0117 47.1244 9.98365 46.8584 9.98365C46.5644 9.98365 46.2494 9.99765 45.9134 10.0257C45.5774 10.0397 45.3254 10.0607 45.1574 10.0887L44.4014 13.2807Z"
        fill="#414652" />
    <path
        d="M54.8847 22.1007H51.7767L54.4017 11.0547H57.5307L54.8847 22.1007ZM56.3967 9.71065C55.9627 9.71065 55.5707 9.58465 55.2207 9.33265C54.8707 9.06665 54.6957 8.66765 54.6957 8.13565C54.6957 7.84165 54.7517 7.56865 54.8637 7.31665C54.9897 7.05065 55.1507 6.82665 55.3467 6.64465C55.5427 6.44865 55.7667 6.29465 56.0187 6.18265C56.2847 6.07065 56.5647 6.01465 56.8587 6.01465C57.2927 6.01465 57.6847 6.14765 58.0347 6.41365C58.3847 6.66565 58.5597 7.05765 58.5597 7.58965C58.5597 7.88365 58.4967 8.16365 58.3707 8.42965C58.2587 8.68165 58.1047 8.90565 57.9087 9.10165C57.7127 9.28365 57.4817 9.43065 57.2157 9.54265C56.9637 9.65465 56.6907 9.71065 56.3967 9.71065Z"
        fill="#414652" />
    <path
        d="M59.2149 11.5587C59.4529 11.4887 59.7119 11.4117 59.9919 11.3277C60.2859 11.2297 60.6079 11.1457 60.9579 11.0757C61.3219 10.9917 61.7209 10.9287 62.1549 10.8867C62.6029 10.8307 63.1069 10.8027 63.6669 10.8027C65.3189 10.8027 66.4529 11.2787 67.0689 12.2307C67.6849 13.1827 67.7899 14.4847 67.3839 16.1367L65.9559 22.1007H62.8269L64.2129 16.2627C64.2969 15.8987 64.3599 15.5487 64.4019 15.2127C64.4579 14.8627 64.4579 14.5617 64.4019 14.3097C64.3459 14.0437 64.2129 13.8337 64.0029 13.6797C63.8069 13.5117 63.4989 13.4277 63.0789 13.4277C62.6729 13.4277 62.2599 13.4697 61.8399 13.5537L59.8029 22.1007H56.6739L59.2149 11.5587Z"
        fill="#414652" />
    <path
        d="M77.892 17.3337C77.696 18.1317 77.64 18.9367 77.724 19.7487C77.808 20.5467 77.969 21.2607 78.207 21.8907L75.414 22.2897C75.33 22.1217 75.253 21.9607 75.183 21.8067C75.113 21.6527 75.043 21.4777 74.973 21.2817C74.581 21.6037 74.147 21.8697 73.671 22.0797C73.195 22.2897 72.663 22.3947 72.075 22.3947C71.375 22.3947 70.773 22.2757 70.269 22.0377C69.779 21.7857 69.373 21.4567 69.051 21.0507C68.743 20.6307 68.519 20.1477 68.379 19.6017C68.239 19.0417 68.169 18.4467 68.169 17.8167C68.169 16.8507 68.337 15.9407 68.673 15.0867C69.023 14.2327 69.499 13.4907 70.101 12.8607C70.717 12.2167 71.438 11.7127 72.264 11.3487C73.09 10.9847 73.986 10.8027 74.952 10.8027C75.078 10.8027 75.295 10.8097 75.603 10.8237C75.925 10.8377 76.289 10.8727 76.695 10.9287C77.101 10.9707 77.528 11.0477 77.976 11.1597C78.424 11.2717 78.851 11.4257 79.257 11.6217L77.892 17.3337ZM75.708 13.4697C75.526 13.4417 75.358 13.4207 75.204 13.4067C75.064 13.3927 74.889 13.3857 74.679 13.3857C74.203 13.3857 73.755 13.5047 73.335 13.7427C72.929 13.9807 72.572 14.2957 72.264 14.6877C71.956 15.0657 71.711 15.5067 71.529 16.0107C71.361 16.5147 71.277 17.0397 71.277 17.5857C71.277 18.2577 71.389 18.7897 71.613 19.1817C71.837 19.5737 72.25 19.7697 72.852 19.7697C73.174 19.7697 73.461 19.7067 73.713 19.5807C73.979 19.4547 74.259 19.2447 74.553 18.9507C74.581 18.6007 74.623 18.2367 74.679 17.8587C74.749 17.4667 74.819 17.1097 74.889 16.7877L75.708 13.4697Z"
        fill="#414652" />
    <path
        d="M87.2767 13.7427C86.9967 13.6727 86.7167 13.6097 86.4367 13.5537C86.1707 13.4837 85.7717 13.4487 85.2397 13.4487C85.0437 13.4487 84.8267 13.4697 84.5887 13.5117C84.3507 13.5397 84.1547 13.5747 84.0007 13.6167L81.9637 22.1007H78.8347L81.3547 11.6427C81.9567 11.4467 82.6287 11.2647 83.3707 11.0967C84.1267 10.9147 84.9737 10.8237 85.9117 10.8237C86.2617 10.8237 86.6467 10.8587 87.0667 10.9287C87.5007 10.9847 87.8787 11.0827 88.2007 11.2227L87.2767 13.7427Z"
        fill="#414652" />
    <path
        d="M98.5281 11.0547C98.1361 12.1187 97.7371 13.1127 97.3311 14.0367C96.9391 14.9607 96.5261 15.8427 96.0921 16.6827C95.6581 17.5087 95.2101 18.2997 94.7481 19.0557C94.2861 19.8117 93.7961 20.5607 93.2781 21.3027C92.9001 21.8487 92.5081 22.4017 92.1021 22.9617C91.6961 23.5217 91.2411 24.0257 90.7371 24.4737C90.2471 24.9217 89.6941 25.2857 89.0781 25.5657C88.4761 25.8457 87.7761 25.9857 86.9781 25.9857C86.4881 25.9857 86.0681 25.9367 85.7181 25.8387C85.3681 25.7547 85.0391 25.6357 84.7311 25.4817L85.6761 23.0247C85.9561 23.1367 86.2081 23.2207 86.4321 23.2767C86.6561 23.3467 86.9291 23.3817 87.2511 23.3817C87.7411 23.3817 88.2031 23.2207 88.6371 22.8987C89.0851 22.5907 89.4561 22.1707 89.7501 21.6387C89.3861 20.2387 89.0501 18.6707 88.7421 16.9347C88.4481 15.1987 88.2451 13.2387 88.1331 11.0547H91.3461C91.3601 11.6007 91.3881 12.2027 91.4301 12.8607C91.4721 13.5187 91.5211 14.1837 91.5771 14.8557C91.6331 15.5137 91.6961 16.1577 91.7661 16.7877C91.8361 17.4177 91.9131 17.9847 91.9971 18.4887C92.6691 17.4807 93.2571 16.3607 93.7611 15.1287C94.2791 13.8967 94.7621 12.5387 95.2101 11.0547H98.5281Z"
        fill="#414652" />
    <path
        d="M105.909 22.2897C105.111 22.2897 104.313 22.2617 103.515 22.2057C102.731 22.1637 101.912 22.0517 101.058 21.8697V7.75765C101.73 7.63165 102.465 7.54065 103.263 7.48465C104.061 7.41465 104.803 7.37965 105.489 7.37965C106.413 7.37965 107.26 7.44965 108.03 7.58965C108.814 7.71565 109.486 7.93965 110.046 8.26165C110.606 8.58365 111.04 9.01065 111.348 9.54265C111.67 10.0607 111.831 10.7047 111.831 11.4747C111.831 12.6367 111.271 13.5537 110.151 14.2257C111.075 14.5757 111.705 15.0517 112.041 15.6537C112.377 16.2557 112.545 16.9347 112.545 17.6907C112.545 19.2167 111.985 20.3647 110.865 21.1347C109.759 21.9047 108.107 22.2897 105.909 22.2897ZM104.25 15.7587V19.5177C104.488 19.5457 104.747 19.5667 105.027 19.5807C105.307 19.5947 105.615 19.6017 105.951 19.6017C106.931 19.6017 107.722 19.4617 108.324 19.1817C108.926 18.9017 109.227 18.3837 109.227 17.6277C109.227 16.9557 108.975 16.4797 108.471 16.1997C107.967 15.9057 107.246 15.7587 106.308 15.7587H104.25ZM104.25 13.2597H105.846C106.854 13.2597 107.575 13.1337 108.009 12.8817C108.443 12.6157 108.66 12.1957 108.66 11.6217C108.66 11.0337 108.436 10.6207 107.988 10.3827C107.54 10.1447 106.882 10.0257 106.014 10.0257C105.734 10.0257 105.433 10.0327 105.111 10.0467C104.789 10.0467 104.502 10.0607 104.25 10.0887V13.2597Z"
        fill="#414652" />
    <path
        d="M124.239 16.5567C124.239 17.4247 124.113 18.2227 123.861 18.9507C123.609 19.6647 123.245 20.2807 122.769 20.7987C122.293 21.3027 121.719 21.6947 121.047 21.9747C120.389 22.2547 119.647 22.3947 118.821 22.3947C118.009 22.3947 117.267 22.2547 116.595 21.9747C115.937 21.6947 115.37 21.3027 114.894 20.7987C114.418 20.2807 114.047 19.6647 113.781 18.9507C113.515 18.2227 113.382 17.4247 113.382 16.5567C113.382 15.6887 113.515 14.8977 113.781 14.1837C114.061 13.4697 114.439 12.8607 114.915 12.3567C115.405 11.8527 115.979 11.4607 116.637 11.1807C117.309 10.9007 118.037 10.7607 118.821 10.7607C119.619 10.7607 120.347 10.9007 121.005 11.1807C121.677 11.4607 122.251 11.8527 122.727 12.3567C123.203 12.8607 123.574 13.4697 123.84 14.1837C124.106 14.8977 124.239 15.6887 124.239 16.5567ZM121.047 16.5567C121.047 15.5907 120.851 14.8347 120.459 14.2887C120.081 13.7287 119.535 13.4487 118.821 13.4487C118.107 13.4487 117.554 13.7287 117.162 14.2887C116.77 14.8347 116.574 15.5907 116.574 16.5567C116.574 17.5227 116.77 18.2927 117.162 18.8667C117.554 19.4267 118.107 19.7067 118.821 19.7067C119.535 19.7067 120.081 19.4267 120.459 18.8667C120.851 18.2927 121.047 17.5227 121.047 16.5567Z"
        fill="#414652" />
    <path
        d="M125.508 8.30365L128.637 7.79965V11.0547H132.396V13.6587H128.637V17.5437C128.637 18.2017 128.749 18.7267 128.973 19.1187C129.211 19.5107 129.68 19.7067 130.38 19.7067C130.716 19.7067 131.059 19.6787 131.409 19.6227C131.773 19.5527 132.102 19.4617 132.396 19.3497L132.837 21.7857C132.459 21.9397 132.039 22.0727 131.577 22.1847C131.115 22.2967 130.548 22.3527 129.876 22.3527C129.022 22.3527 128.315 22.2407 127.755 22.0167C127.195 21.7787 126.747 21.4567 126.411 21.0507C126.075 20.6307 125.837 20.1267 125.697 19.5387C125.571 18.9507 125.508 18.2997 125.508 17.5857V8.30365Z"
        fill="#414652" />
</svg>