<svg width="121" height="32" viewBox="0 0 121 32" fill="none" xmlns="http://www.w3.org/2000/svg">
    <path
        d="M0 6C0 2.68629 2.68629 0 6 0H26C29.3137 0 32 2.68629 32 6V26C32 29.3137 29.3137 32 26 32H6C2.68629 32 0 29.3137 0 26V6Z"
        fill="#FF444F" />
    <path d="M6 0C2.68629 0 0 2.68629 0 6V6.17428L29.9144 1.45264C28.8637 0.547333 27.4958 0 26 0H6Z" fill="#E12E3A" />
    <path
        d="M30.5319 2.06775L25.0444 32L26 32C29.3137 32 32 29.3137 32 26V6C32 4.49576 31.4465 3.12081 30.5319 2.06775Z"
        fill="#E12E3A" />
    <path
        d="M9.61325 19.0488C9.71592 19.0581 9.83259 19.0675 9.96325 19.0768C10.1033 19.0768 10.2666 19.0768 10.4533 19.0768C11.5453 19.0768 12.3526 18.8015 12.8753 18.2508C13.4073 17.7001 13.6733 16.9395 13.6733 15.9688C13.6733 14.9515 13.4213 14.1815 12.9173 13.6588C12.4133 13.1361 11.6153 12.8748 10.5233 12.8748C10.3739 12.8748 10.2199 12.8795 10.0613 12.8888C9.90259 12.8888 9.75325 12.8981 9.61325 12.9168V19.0488ZM15.9273 15.9688C15.9273 16.8088 15.7966 17.5415 15.5353 18.1668C15.2739 18.7921 14.9006 19.3101 14.4153 19.7208C13.9393 20.1315 13.3559 20.4395 12.6653 20.6448C11.9746 20.8501 11.1999 20.9528 10.3413 20.9528C9.94925 20.9528 9.49192 20.9341 8.96925 20.8968C8.44659 20.8688 7.93325 20.8035 7.42925 20.7008V11.2508C7.93325 11.1575 8.45592 11.0968 8.99725 11.0688C9.54792 11.0315 10.0193 11.0128 10.4113 11.0128C11.2419 11.0128 11.9933 11.1061 12.6653 11.2928C13.3466 11.4795 13.9299 11.7735 14.4153 12.1748C14.9006 12.5761 15.2739 13.0895 15.5353 13.7148C15.7966 14.3401 15.9273 15.0915 15.9273 15.9688Z"
        fill="white" />
    <path
        d="M20.2855 20.9528C19.7535 20.9528 19.2215 20.9341 18.6895 20.8968C18.1669 20.8688 17.6209 20.7941 17.0515 20.6728V11.2648C17.4995 11.1808 17.9895 11.1201 18.5215 11.0828C19.0535 11.0361 19.5482 11.0128 20.0055 11.0128C20.6215 11.0128 21.1862 11.0595 21.6995 11.1528C22.2222 11.2368 22.6702 11.3861 23.0435 11.6008C23.4169 11.8155 23.7062 12.1001 23.9115 12.4548C24.1262 12.8001 24.2335 13.2295 24.2335 13.7428C24.2335 14.5175 23.8602 15.1288 23.1135 15.5768C23.7295 15.8101 24.1495 16.1275 24.3735 16.5288C24.5975 16.9301 24.7095 17.3828 24.7095 17.8868C24.7095 18.9041 24.3362 19.6695 23.5895 20.1828C22.8522 20.6961 21.7509 20.9528 20.2855 20.9528ZM19.1795 16.5988V19.1048C19.3382 19.1235 19.5109 19.1375 19.6975 19.1468C19.8842 19.1561 20.0895 19.1608 20.3135 19.1608C20.9669 19.1608 21.4942 19.0675 21.8955 18.8808C22.2969 18.6941 22.4975 18.3488 22.4975 17.8448C22.4975 17.3968 22.3295 17.0795 21.9935 16.8928C21.6575 16.6968 21.1769 16.5988 20.5515 16.5988H19.1795ZM19.1795 14.9328H20.2435C20.9155 14.9328 21.3962 14.8488 21.6855 14.6808C21.9749 14.5035 22.1195 14.2235 22.1195 13.8408C22.1195 13.4488 21.9702 13.1735 21.6715 13.0148C21.3729 12.8561 20.9342 12.7768 20.3555 12.7768C20.1689 12.7768 19.9682 12.7815 19.7535 12.7908C19.5389 12.7908 19.3475 12.8001 19.1795 12.8188V14.9328Z"
        fill="white" />
    <path fill-rule="evenodd" clip-rule="evenodd"
        d="M48.3267 8.51666L47.539 12.9837H44.8048C42.2539 12.9837 39.8225 15.0504 39.3718 17.6013L39.1811 18.6871C38.7325 21.238 40.4345 23.3048 42.9854 23.3048H45.2659C47.1251 23.3048 48.8962 21.7997 49.2232 19.9406L51.3234 8.03491L48.3267 8.51666ZM46.3866 19.5193C46.286 20.0936 45.7689 20.561 45.1946 20.561H43.8092C42.6626 20.561 41.8955 19.6303 42.0967 18.4817L42.2162 17.8047C42.4195 16.6581 43.5136 15.7254 44.6601 15.7254H47.0556L46.3866 19.5193Z"
        fill="#414652" />
    <path d="M69.384 23.3055H72.222L74.0162 13.127H71.1782L69.384 23.3055Z" fill="#414652" />
    <path
        d="M69.4785 14.4539L69.4789 14.4516C69.55 14.0491 69.621 13.6467 69.692 13.2442C66.7799 12.4939 64.5116 13.2701 63.5879 13.6526C63.5879 13.6526 62.2704 21.1211 61.8848 23.3079H64.7247C65.1855 20.6943 65.6464 18.0801 66.1067 15.4665C66.5329 15.3815 67.9201 15.2484 69.2646 15.6663C69.3358 15.2621 69.4071 14.858 69.4785 14.4539Z"
        fill="#414652" />
    <path fill-rule="evenodd" clip-rule="evenodd"
        d="M58.1821 12.9827H55.975C53.8224 12.9827 51.7704 14.7266 51.391 16.8792L50.9446 19.4092C50.5652 21.5618 52.001 23.3058 54.1536 23.3058H58.8529L59.335 20.5704H54.9186C54.2018 20.5704 53.7218 19.9898 53.8497 19.2709L53.8644 19.1849H60.9846L61.3912 16.8792C61.7705 14.7266 60.3348 12.9827 58.1821 12.9827ZM58.5427 16.6613L58.5259 16.808H54.292L54.315 16.678C54.4428 15.9612 55.0968 15.3303 55.8157 15.3303H57.4695C58.1801 15.3303 58.6601 15.9507 58.5427 16.6613Z"
        fill="#414652" />
    <path
        d="M78.9487 19.8406C80.2373 17.5223 81.6579 14.4807 82.2499 13.127H85.0921C84.1247 15.6992 81.9075 20.0747 79.7598 23.3055H76.9197C75.9339 20.2306 75.2972 15.9462 75.1758 13.127H78.0159C78.0672 14.0466 78.4789 17.4576 78.9487 19.8406Z"
        fill="#414652" />
    <path
        d="M93.64 23.8603C92.8419 23.8603 92.0439 23.8323 91.2459 23.7763C90.4619 23.7343 89.6429 23.6223 88.7889 23.4403V9.32832C89.4609 9.20232 90.1959 9.11132 90.9939 9.05532C91.7919 8.98532 92.534 8.95032 93.22 8.95032C94.144 8.95032 94.991 9.02032 95.761 9.16032C96.545 9.28632 97.217 9.51032 97.777 9.83232C98.337 10.1543 98.771 10.5813 99.079 11.1133C99.401 11.6313 99.562 12.2753 99.562 13.0453C99.562 14.2073 99.002 15.1243 97.882 15.7963C98.806 16.1463 99.436 16.6223 99.772 17.2243C100.108 17.8263 100.276 18.5053 100.276 19.2613C100.276 20.7873 99.716 21.9353 98.596 22.7053C97.49 23.4753 95.838 23.8603 93.64 23.8603ZM91.981 17.3293V21.0883C92.219 21.1163 92.478 21.1373 92.758 21.1513C93.038 21.1653 93.3459 21.1723 93.6819 21.1723C94.662 21.1723 95.453 21.0323 96.055 20.7523C96.657 20.4723 96.958 19.9543 96.958 19.1983C96.958 18.5263 96.706 18.0503 96.202 17.7703C95.698 17.4763 94.977 17.3293 94.039 17.3293H91.981ZM91.981 14.8303H93.577C94.585 14.8303 95.306 14.7043 95.74 14.4523C96.174 14.1863 96.391 13.7663 96.391 13.1923C96.391 12.6043 96.167 12.1913 95.719 11.9533C95.271 11.7153 94.613 11.5963 93.745 11.5963C93.465 11.5963 93.164 11.6033 92.842 11.6173C92.5199 11.6173 92.233 11.6313 91.981 11.6593V14.8303Z"
        fill="#414652" />
    <path
        d="M111.97 18.1273C111.97 18.9953 111.844 19.7933 111.592 20.5213C111.34 21.2353 110.976 21.8513 110.5 22.3693C110.024 22.8733 109.45 23.2653 108.778 23.5453C108.12 23.8253 107.378 23.9653 106.552 23.9653C105.74 23.9653 104.998 23.8253 104.326 23.5453C103.668 23.2653 103.101 22.8733 102.625 22.3693C102.149 21.8513 101.778 21.2353 101.512 20.5213C101.246 19.7933 101.113 18.9953 101.113 18.1273C101.113 17.2593 101.246 16.4683 101.512 15.7543C101.792 15.0403 102.17 14.4313 102.646 13.9273C103.136 13.4233 103.71 13.0313 104.368 12.7513C105.04 12.4713 105.768 12.3313 106.552 12.3313C107.35 12.3313 108.078 12.4713 108.736 12.7513C109.408 13.0313 109.982 13.4233 110.458 13.9273C110.934 14.4313 111.305 15.0403 111.571 15.7543C111.837 16.4683 111.97 17.2593 111.97 18.1273ZM108.778 18.1273C108.778 17.1613 108.582 16.4053 108.19 15.8593C107.812 15.2993 107.266 15.0193 106.552 15.0193C105.838 15.0193 105.285 15.2993 104.893 15.8593C104.501 16.4053 104.305 17.1613 104.305 18.1273C104.305 19.0933 104.501 19.8633 104.893 20.4373C105.285 20.9973 105.838 21.2773 106.552 21.2773C107.266 21.2773 107.812 20.9973 108.19 20.4373C108.582 19.8633 108.778 19.0933 108.778 18.1273Z"
        fill="#414652" />
    <path
        d="M113.239 9.87432L116.368 9.37032V12.6253H120.127V15.2293H116.368V19.1143C116.368 19.7723 116.48 20.2973 116.704 20.6893C116.942 21.0813 117.411 21.2773 118.111 21.2773C118.447 21.2773 118.79 21.2493 119.14 21.1933C119.504 21.1233 119.833 21.0323 120.127 20.9203L120.568 23.3563C120.19 23.5103 119.77 23.6433 119.308 23.7553C118.846 23.8673 118.279 23.9233 117.607 23.9233C116.753 23.9233 116.046 23.8113 115.486 23.5873C114.926 23.3493 114.478 23.0273 114.142 22.6213C113.806 22.2013 113.568 21.6973 113.428 21.1093C113.302 20.5213 113.239 19.8703 113.239 19.1563V9.87432Z"
        fill="#414652" />
</svg>