<svg width="102" height="32" viewBox="0 0 102 32" fill="none" xmlns="http://www.w3.org/2000/svg">
    <path
        d="M0 6C0 2.68629 2.68629 0 6 0H26C29.3137 0 32 2.68629 32 6V26C32 29.3137 29.3137 32 26 32H6C2.68629 32 0 29.3137 0 26V6Z"
        fill="#FF444F" />
    <path d="M6 0C2.68629 0 0 2.68629 0 6V6.17428L29.9144 1.45264C28.8637 0.547333 27.4958 0 26 0H6Z" fill="#E12E3A" />
    <path
        d="M30.5319 2.06775L25.0444 32L26 32C29.3137 32 32 29.3137 32 26V6C32 4.49576 31.4465 3.12081 30.5319 2.06775Z"
        fill="#E12E3A" />
    <path
        d="M9.54424 19.0659C9.64691 19.0753 9.76358 19.0846 9.89424 19.0939C10.0342 19.0939 10.1976 19.0939 10.3842 19.0939C11.4762 19.0939 12.2836 18.8186 12.8062 18.2679C13.3382 17.7173 13.6042 16.9566 13.6042 15.9859C13.6042 14.9686 13.3522 14.1986 12.8482 13.6759C12.3442 13.1533 11.5462 12.8919 10.4542 12.8919C10.3049 12.8919 10.1509 12.8966 9.99224 12.9059C9.83358 12.9059 9.68424 12.9153 9.54424 12.9339V19.0659ZM15.8582 15.9859C15.8582 16.8259 15.7276 17.5586 15.4662 18.1839C15.2049 18.8093 14.8316 19.3273 14.3462 19.7379C13.8702 20.1486 13.2869 20.4566 12.5962 20.6619C11.9056 20.8673 11.1309 20.9699 10.2722 20.9699C9.88024 20.9699 9.42291 20.9513 8.90024 20.9139C8.37758 20.8859 7.86424 20.8206 7.36024 20.7179V11.2679C7.86424 11.1746 8.38691 11.1139 8.92824 11.0859C9.47891 11.0486 9.95024 11.0299 10.3422 11.0299C11.1729 11.0299 11.9242 11.1233 12.5962 11.3099C13.2776 11.4966 13.8609 11.7906 14.3462 12.1919C14.8316 12.5933 15.2049 13.1066 15.4662 13.7319C15.7276 14.3573 15.8582 15.1086 15.8582 15.9859Z"
        fill="white" />
    <path
        d="M22.0213 20.8439C21.7506 20.3026 21.452 19.7566 21.1253 19.2059C20.808 18.646 20.4393 18.0766 20.0193 17.4979C19.8886 17.6659 19.7206 17.8993 19.5153 18.1979C19.3193 18.4966 19.1186 18.8139 18.9133 19.1499C18.7173 19.4859 18.5306 19.8079 18.3533 20.1159C18.176 20.4239 18.0453 20.6666 17.9613 20.8439H15.4693C15.88 20.0879 16.356 19.2946 16.8973 18.4639C17.448 17.6333 18.0593 16.7513 18.7313 15.8179L15.6093 11.1419H18.2553L20.1453 14.1659L21.9933 11.1419H24.4853L21.4053 15.8459C22.1893 16.8633 22.8473 17.8059 23.3793 18.6739C23.9113 19.5326 24.3313 20.2559 24.6393 20.8439H22.0213Z"
        fill="white" />
    <path fill-rule="evenodd" clip-rule="evenodd"
        d="M48.3267 8.66338L47.539 13.1304H44.8048C42.2539 13.1304 39.8225 15.1972 39.3718 17.7481L39.1811 18.8338C38.7325 21.3848 40.4345 23.4515 42.9854 23.4515H45.2659C47.1251 23.4515 48.8962 21.9465 49.2232 20.0873L51.3234 8.18164L48.3267 8.66338ZM46.3866 19.666C46.286 20.2403 45.7689 20.7078 45.1946 20.7078H43.8092C42.6626 20.7078 41.8955 19.7771 42.0967 18.6284L42.2162 17.9514C42.4195 16.8048 43.5136 15.8721 44.6601 15.8721H47.0556L46.3866 19.666Z"
        fill="#414652" />
    <path d="M69.384 23.4522H72.222L74.0162 13.2737H71.1782L69.384 23.4522Z" fill="#414652" />
    <path
        d="M69.4785 14.6006L69.4789 14.5983C69.55 14.1959 69.6211 13.7934 69.692 13.391C66.7799 12.6406 64.5116 13.4169 63.5879 13.7994C63.5879 13.7994 62.2704 21.2678 61.8848 23.4547H64.7247C65.1855 20.8411 65.6464 18.2268 66.1067 15.6132C66.5329 15.5282 67.9201 15.3952 69.2646 15.813C69.3358 15.4089 69.4072 15.0048 69.4785 14.6006Z"
        fill="#414652" />
    <path fill-rule="evenodd" clip-rule="evenodd"
        d="M58.1822 13.1294H55.975C53.8224 13.1294 51.7704 14.8733 51.391 17.026L50.9446 19.556C50.5652 21.7086 52.001 23.4526 54.1536 23.4526H58.8529L59.335 20.7172H54.9186C54.2018 20.7172 53.7218 20.1366 53.8497 19.4176L53.8644 19.3317H60.9846L61.3912 17.026C61.7705 14.8733 60.3348 13.1294 58.1822 13.1294ZM58.5427 16.808L58.5259 16.9547H54.292L54.315 16.8248C54.4428 16.1079 55.0969 15.477 55.8157 15.477H57.4695C58.1801 15.477 58.6601 16.0974 58.5427 16.808Z"
        fill="#414652" />
    <path
        d="M78.9487 19.9873C80.2373 17.6691 81.658 14.6274 82.2499 13.2737H85.0921C84.1247 15.8459 81.9075 20.2215 79.7598 23.4522H76.9197C75.9339 20.3773 75.2972 16.0929 75.1758 13.2737H78.016C78.0672 14.1933 78.4789 17.6044 78.9487 19.9873Z"
        fill="#414652" />
    <path
        d="M97.147 23.8181C96.741 23.0061 96.293 22.1871 95.803 21.3611C95.327 20.5211 94.774 19.6671 94.144 18.7991C93.948 19.0511 93.696 19.4011 93.388 19.8491C93.094 20.2971 92.793 20.7731 92.485 21.2771C92.191 21.7811 91.911 22.2641 91.645 22.7261C91.379 23.1881 91.183 23.5521 91.057 23.8181H87.319C87.935 22.6841 88.649 21.4941 89.461 20.2481C90.287 19.0021 91.204 17.6791 92.212 16.2791L87.529 9.26513H91.498L94.333 13.8011L97.105 9.26513H100.843L96.223 16.3211C97.399 17.8471 98.386 19.2611 99.184 20.5631C99.982 21.8511 100.612 22.9361 101.074 23.8181H97.147Z"
        fill="#414652" />
</svg>