<svg width="72" height="72" fill="none" xmlns="http://www.w3.org/2000/svg"><path d="M13.5 0C6.044 0 0 6.044 0 13.5v.392L67.307 3.268A13.447 13.447 0 0 0 58.499 0h-45ZM68.696 4.652 56.349 72h2.15c7.456 0 13.5-6.044 13.5-13.5v-45c0-3.384-1.245-6.477-3.303-8.847Z" fill="#2A3052"/><path fill-rule="evenodd" clip-rule="evenodd" d="M56.349 71.999 13.499 72C6.045 72 0 65.956 0 58.5V13.892L67.307 3.268c.495.428.96.89 1.389 1.384L56.349 72Z" fill="#384177"/><path d="M24.866 47.182c-1.197 0-2.394-.041-3.59-.126a23.814 23.814 0 0 1-3.686-.503V25.385a29.034 29.034 0 0 1 3.307-.41 38.371 38.371 0 0 1 3.34-.158c1.385 0 2.656.105 3.81.316 1.177.189 2.185.524 3.025 1.008a5.201 5.201 0 0 1 1.953 1.921c.483.777.724 1.743.724 2.898 0 1.743-.84 3.118-2.52 4.127 1.386.524 2.331 1.238 2.835 2.141.504.904.756 1.922.756 3.056 0 2.29-.84 4.011-2.52 5.166-1.659 1.155-4.137 1.732-7.434 1.732Zm-2.488-9.796v5.639c.357.041.745.073 1.165.094.42.021.882.032 1.386.032 1.47 0 2.657-.21 3.56-.63.903-.42 1.354-1.197 1.354-2.331 0-1.008-.378-1.722-1.134-2.142-.756-.442-1.837-.662-3.244-.662h-3.087Zm0-3.748h2.394c1.512 0 2.593-.19 3.244-.567.651-.4.977-1.03.977-1.89 0-.883-.336-1.502-1.008-1.859-.672-.357-1.66-.535-2.961-.535-.42 0-.872.01-1.355.031-.483 0-.913.021-1.291.063v4.757ZM44.455 47.182c-1.197 0-2.394-.041-3.59-.126a23.814 23.814 0 0 1-3.686-.503V25.385a29.034 29.034 0 0 1 3.307-.41 38.371 38.371 0 0 1 3.34-.158c1.385 0 2.656.105 3.81.316 1.177.189 2.185.524 3.025 1.008a5.201 5.201 0 0 1 1.953 1.921c.483.777.724 1.743.724 2.898 0 1.743-.84 3.118-2.52 4.127 1.386.524 2.331 1.238 2.835 2.141.504.904.756 1.922.756 3.056 0 2.29-.84 4.011-2.52 5.166-1.659 1.155-4.137 1.732-7.434 1.732Zm-2.488-9.796v5.639c.357.041.745.073 1.165.094.42.021.882.032 1.386.032 1.47 0 2.657-.21 3.56-.63.903-.42 1.354-1.197 1.354-2.331 0-1.008-.378-1.722-1.134-2.142-.756-.442-1.837-.662-3.244-.662h-3.087Zm0-3.748h2.394c1.512 0 2.593-.19 3.244-.567.651-.4.977-1.03.977-1.89 0-.883-.336-1.502-1.008-1.859-.672-.357-1.66-.535-2.961-.535-.42 0-.872.01-1.355.031-.483 0-.913.021-1.291.063v4.757Z" fill="#fff"/></svg>