<svg width="154" height="32" viewBox="0 0 154 32" fill="none" xmlns="http://www.w3.org/2000/svg">
<path d="M5.99992 0C2.68625 0 0 2.68625 0 5.99992V6.17424L29.9141 1.45266C28.8633 0.547339 27.4954 0 25.9996 0H5.99992Z" fill="#2A3052"/>
<path d="M30.5315 2.06772L25.044 31.9996H25.9996C29.3133 31.9996 31.9996 29.3133 31.9996 25.9996V5.99992C31.9996 4.4957 31.446 3.12078 30.5315 2.06772Z" fill="#2A3052"/>
<path fill-rule="evenodd" clip-rule="evenodd" d="M25.044 31.9996L5.99992 32C2.68625 32 0 29.3137 0 26.0001V6.17424L29.9141 1.45266C30.1344 1.64252 30.3408 1.84812 30.5315 2.06772L25.044 31.9996Z" fill="#384177"/>
<path d="M11.7613 19.199C12.0693 19.199 12.3213 19.1757 12.5173 19.129C12.7226 19.073 12.8859 19.003 13.0073 18.919C13.1286 18.8257 13.2126 18.7183 13.2593 18.597C13.3059 18.4757 13.3293 18.3403 13.3293 18.191C13.3293 17.8737 13.1799 17.6123 12.8813 17.407C12.5826 17.1923 12.0693 16.9637 11.3413 16.721C11.0239 16.609 10.7066 16.483 10.3893 16.343C10.0719 16.1937 9.78726 16.0117 9.53526 15.797C9.28326 15.573 9.07793 15.307 8.91926 14.999C8.7606 14.6817 8.68126 14.299 8.68126 13.851C8.68126 13.403 8.76526 13.0017 8.93326 12.647C9.10126 12.283 9.33926 11.975 9.64726 11.723C9.95526 11.471 10.3286 11.2797 10.7673 11.149C11.2059 11.009 11.7006 10.939 12.2513 10.939C12.9046 10.939 13.4693 11.009 13.9453 11.149C14.4213 11.289 14.8133 11.443 15.1213 11.611L14.4913 13.333C14.2206 13.193 13.9173 13.0717 13.5813 12.969C13.2546 12.857 12.8579 12.801 12.3913 12.801C11.8686 12.801 11.4906 12.8757 11.2573 13.025C11.0333 13.165 10.9213 13.3843 10.9213 13.683C10.9213 13.8603 10.9633 14.0097 11.0473 14.131C11.1313 14.2523 11.2479 14.3643 11.3973 14.467C11.5559 14.5603 11.7333 14.649 11.9293 14.733C12.1346 14.8077 12.3586 14.887 12.6013 14.971C13.1053 15.1577 13.5439 15.3443 13.9173 15.531C14.2906 15.7083 14.5986 15.9183 14.8413 16.161C15.0933 16.4037 15.2799 16.6883 15.4013 17.015C15.5226 17.3417 15.5833 17.7383 15.5833 18.205C15.5833 19.1103 15.2659 19.815 14.6313 20.319C13.9966 20.8137 13.0399 21.061 11.7613 21.061C11.3319 21.061 10.9446 21.033 10.5993 20.977C10.2539 20.9303 9.94593 20.8697 9.67526 20.795C9.41393 20.7203 9.18526 20.641 8.98926 20.557C8.8026 20.473 8.64393 20.3937 8.51326 20.319L9.12926 18.583C9.4186 18.7417 9.77326 18.8863 10.1933 19.017C10.6226 19.1383 11.1453 19.199 11.7613 19.199Z" fill="white"/>
<path d="M23.4863 11.163V13.025H20.5603V20.865H18.3763V13.025H15.4503V11.163H23.4863Z" fill="white"/>
<path d="M43.9814 21.5021C44.4434 21.5021 44.8214 21.4671 45.1154 21.3971C45.4234 21.3131 45.6684 21.2081 45.8504 21.0821C46.0324 20.9421 46.1584 20.7811 46.2284 20.5991C46.2984 20.4171 46.3334 20.2141 46.3334 19.9901C46.3334 19.5141 46.1094 19.1221 45.6614 18.8141C45.2134 18.4921 44.4434 18.1491 43.3514 17.7851C42.8754 17.6171 42.3994 17.4281 41.9234 17.2181C41.4474 16.9941 41.0204 16.7211 40.6424 16.3991C40.2644 16.0631 39.9564 15.6641 39.7184 15.2021C39.4804 14.7261 39.3614 14.1521 39.3614 13.4801C39.3614 12.8081 39.4874 12.2061 39.7394 11.6741C39.9914 11.1281 40.3484 10.6661 40.8104 10.2881C41.2724 9.91008 41.8324 9.62308 42.4904 9.42708C43.1484 9.21708 43.8904 9.11208 44.7164 9.11208C45.6964 9.11208 46.5434 9.21708 47.2574 9.42708C47.9714 9.63708 48.5594 9.86808 49.0214 10.1201L48.0764 12.7031C47.6704 12.4931 47.2154 12.3111 46.7114 12.1571C46.2214 11.9891 45.6264 11.9051 44.9264 11.9051C44.1424 11.9051 43.5754 12.0171 43.2254 12.2411C42.8894 12.4511 42.7214 12.7801 42.7214 13.2281C42.7214 13.4941 42.7844 13.7181 42.9104 13.9001C43.0364 14.0821 43.2114 14.2501 43.4354 14.4041C43.6734 14.5441 43.9394 14.6771 44.2334 14.8031C44.5414 14.9151 44.8774 15.0341 45.2414 15.1601C45.9974 15.4401 46.6554 15.7201 47.2154 16.0001C47.7754 16.2661 48.2374 16.5811 48.6014 16.9451C48.9794 17.3091 49.2594 17.7361 49.4414 18.2261C49.6234 18.7161 49.7144 19.3111 49.7144 20.0111C49.7144 21.3691 49.2384 22.4261 48.2864 23.1821C47.3344 23.9241 45.8994 24.2951 43.9814 24.2951C43.3374 24.2951 42.7564 24.2531 42.2384 24.1691C41.7204 24.0991 41.2584 24.0081 40.8524 23.8961C40.4604 23.7841 40.1174 23.6651 39.8234 23.5391C39.5434 23.4131 39.3054 23.2941 39.1094 23.1821L40.0334 20.5781C40.4674 20.8161 40.9994 21.0331 41.6294 21.2291C42.2734 21.4111 43.0574 21.5021 43.9814 21.5021Z" fill="#414652"/>
<path d="M57.044 18.1421C57.044 17.1341 56.911 16.4201 56.645 16.0001C56.393 15.5801 55.952 15.3701 55.322 15.3701C55.126 15.3701 54.923 15.3841 54.713 15.4121C54.503 15.4261 54.3 15.4471 54.104 15.4751V24.0011H50.975V13.3331C51.241 13.2631 51.549 13.1931 51.899 13.1231C52.263 13.0391 52.641 12.9691 53.033 12.9131C53.439 12.8431 53.852 12.7941 54.272 12.7661C54.692 12.7241 55.105 12.7031 55.511 12.7031C56.309 12.7031 56.953 12.8081 57.443 13.0181C57.9471 13.2141 58.3601 13.4521 58.682 13.7321C59.1301 13.4101 59.6411 13.1581 60.2151 12.9761C60.8031 12.7941 61.3421 12.7031 61.8321 12.7031C62.7141 12.7031 63.4351 12.8291 63.9951 13.0811C64.5691 13.3191 65.0241 13.6621 65.3601 14.1101C65.6961 14.5581 65.9271 15.0901 66.0531 15.7061C66.1791 16.3221 66.2421 17.0081 66.2421 17.7641V24.0011H63.1131V18.1421C63.1131 17.1341 62.9801 16.4201 62.7141 16.0001C62.4621 15.5801 62.0211 15.3701 61.3911 15.3701C61.2231 15.3701 60.9851 15.4121 60.6771 15.4961C60.3831 15.5801 60.1381 15.6851 59.9421 15.8111C60.0401 16.1331 60.1031 16.4761 60.1311 16.8401C60.159 17.1901 60.1731 17.5681 60.1731 17.9741V24.0011H57.044V18.1421Z" fill="#414652"/>
<path d="M72.2545 21.8171C72.5625 21.8171 72.8565 21.8101 73.1365 21.7961C73.4165 21.7821 73.6405 21.7611 73.8085 21.7331V19.3601C73.6825 19.3321 73.4935 19.3041 73.2415 19.2761C72.9895 19.2481 72.7585 19.2341 72.5485 19.2341C72.2545 19.2341 71.9745 19.2551 71.7085 19.2971C71.4565 19.3251 71.2325 19.3881 71.0365 19.4861C70.8405 19.5841 70.6865 19.7171 70.5745 19.8851C70.4625 20.0531 70.4065 20.2631 70.4065 20.5151C70.4065 21.0051 70.5675 21.3481 70.8895 21.5441C71.2255 21.7261 71.6805 21.8171 72.2545 21.8171ZM72.0025 12.6611C72.9265 12.6611 73.6965 12.7661 74.3125 12.9761C74.9285 13.1861 75.4185 13.4871 75.7825 13.8791C76.1605 14.2711 76.4265 14.7471 76.5805 15.3071C76.7345 15.8671 76.8115 16.4901 76.8115 17.1761V23.6861C76.3635 23.7841 75.7405 23.8961 74.9425 24.0221C74.1445 24.1621 73.1785 24.2321 72.0445 24.2321C71.3305 24.2321 70.6795 24.1691 70.0915 24.0431C69.5175 23.9171 69.0205 23.7141 68.6005 23.4341C68.1805 23.1401 67.8585 22.7621 67.6345 22.3001C67.4105 21.8381 67.2985 21.2711 67.2985 20.5991C67.2985 19.9551 67.4245 19.4091 67.6765 18.9611C67.9425 18.5131 68.2925 18.1561 68.7265 17.8901C69.1605 17.6241 69.6575 17.4351 70.2175 17.3231C70.7775 17.1971 71.3585 17.1341 71.9605 17.1341C72.3665 17.1341 72.7235 17.1551 73.0315 17.1971C73.3535 17.2251 73.6125 17.2671 73.8085 17.3231V17.0291C73.8085 16.4971 73.6475 16.0701 73.3255 15.7481C73.0035 15.4261 72.4435 15.2651 71.6455 15.2651C71.1135 15.2651 70.5885 15.3071 70.0705 15.3911C69.5525 15.4611 69.1045 15.5661 68.7265 15.7061L68.3275 13.1861C68.5095 13.1301 68.7335 13.0741 68.9995 13.0181C69.2795 12.9481 69.5805 12.8921 69.9025 12.8501C70.2245 12.7941 70.5605 12.7521 70.9105 12.7241C71.2745 12.6821 71.6385 12.6611 72.0025 12.6611Z" fill="#414652"/>
<path d="M85.2479 15.7271C84.9679 15.6571 84.6389 15.5871 84.2609 15.5171C83.8829 15.4331 83.4769 15.3911 83.0429 15.3911C82.8469 15.3911 82.6089 15.4121 82.3289 15.4541C82.0629 15.4821 81.8599 15.5171 81.7199 15.5591V24.0011H78.5909V13.5431C79.1509 13.3471 79.8089 13.1651 80.5649 12.9971C81.3349 12.8151 82.1889 12.7241 83.1269 12.7241C83.2949 12.7241 83.4979 12.7381 83.7359 12.7661C83.9739 12.7801 84.2119 12.8081 84.4499 12.8501C84.6879 12.8781 84.9259 12.9201 85.1639 12.9761C85.4019 13.0181 85.6049 13.0741 85.7729 13.1441L85.2479 15.7271Z" fill="#414652"/>
<path d="M86.2953 10.2041L89.4243 9.70008V12.9551H93.1833V15.5591H89.4243V19.4441C89.4243 20.1021 89.5363 20.6271 89.7603 21.0191C89.9983 21.4111 90.4673 21.6071 91.1673 21.6071C91.5033 21.6071 91.8463 21.5791 92.1963 21.5231C92.5603 21.4531 92.8893 21.3621 93.1833 21.2501L93.6243 23.6861C93.2463 23.8401 92.8263 23.9731 92.3643 24.0851C91.9023 24.1971 91.3353 24.2531 90.6633 24.2531C89.8093 24.2531 89.1023 24.1411 88.5423 23.9171C87.9823 23.6791 87.5343 23.3571 87.1983 22.9511C86.8623 22.5311 86.6243 22.0271 86.4843 21.4391C86.3583 20.8511 86.2953 20.2001 86.2953 19.4861V10.2041Z" fill="#414652"/>
<path d="M105.685 9.44808V12.2411H101.296V24.0011H98.0203V12.2411H93.6313V9.44808H105.685Z" fill="#414652"/>
<path d="M111.732 15.7271C111.452 15.6571 111.123 15.5871 110.745 15.5171C110.367 15.4331 109.961 15.3911 109.527 15.3911C109.331 15.3911 109.093 15.4121 108.813 15.4541C108.547 15.4821 108.344 15.5171 108.204 15.5591V24.0011H105.075V13.5431C105.635 13.3471 106.293 13.1651 107.049 12.9971C107.819 12.8151 108.673 12.7241 109.611 12.7241C109.779 12.7241 109.982 12.7381 110.22 12.7661C110.458 12.7801 110.696 12.8081 110.934 12.8501C111.172 12.8781 111.41 12.9201 111.648 12.9761C111.886 13.0181 112.089 13.0741 112.257 13.1441L111.732 15.7271Z" fill="#414652"/>
<path d="M116.9 21.8171C117.208 21.8171 117.502 21.8101 117.782 21.7961C118.062 21.7821 118.286 21.7611 118.454 21.7331V19.3601C118.328 19.3321 118.139 19.3041 117.887 19.2761C117.635 19.2481 117.404 19.2341 117.194 19.2341C116.9 19.2341 116.62 19.2551 116.354 19.2971C116.102 19.3251 115.878 19.3881 115.682 19.4861C115.486 19.5841 115.332 19.7171 115.22 19.8851C115.108 20.0531 115.052 20.2631 115.052 20.5151C115.052 21.0051 115.213 21.3481 115.535 21.5441C115.871 21.7261 116.326 21.8171 116.9 21.8171ZM116.648 12.6611C117.572 12.6611 118.342 12.7661 118.958 12.9761C119.574 13.1861 120.064 13.4871 120.428 13.8791C120.806 14.2711 121.072 14.7471 121.226 15.3071C121.38 15.8671 121.457 16.4901 121.457 17.1761V23.6861C121.009 23.7841 120.386 23.8961 119.588 24.0221C118.79 24.1621 117.824 24.2321 116.69 24.2321C115.976 24.2321 115.325 24.1691 114.737 24.0431C114.163 23.9171 113.666 23.7141 113.246 23.4341C112.826 23.1401 112.504 22.7621 112.28 22.3001C112.056 21.8381 111.944 21.2711 111.944 20.5991C111.944 19.9551 112.07 19.4091 112.322 18.9611C112.588 18.5131 112.938 18.1561 113.372 17.8901C113.806 17.6241 114.303 17.4351 114.863 17.3231C115.423 17.1971 116.004 17.1341 116.606 17.1341C117.012 17.1341 117.369 17.1551 117.677 17.1971C117.999 17.2251 118.258 17.2671 118.454 17.3231V17.0291C118.454 16.4971 118.293 16.0701 117.971 15.7481C117.649 15.4261 117.089 15.2651 116.291 15.2651C115.759 15.2651 115.234 15.3071 114.716 15.3911C114.198 15.4611 113.75 15.5661 113.372 15.7061L112.973 13.1861C113.155 13.1301 113.379 13.0741 113.645 13.0181C113.925 12.9481 114.226 12.8921 114.548 12.8501C114.87 12.7941 115.206 12.7521 115.556 12.7241C115.92 12.6821 116.284 12.6611 116.648 12.6611Z" fill="#414652"/>
<path d="M125.903 18.3941C125.903 19.3601 126.12 20.1371 126.554 20.7251C126.988 21.3131 127.632 21.6071 128.486 21.6071C128.766 21.6071 129.025 21.6001 129.263 21.5861C129.501 21.5581 129.697 21.5301 129.851 21.5021V15.8111C129.655 15.6851 129.396 15.5801 129.074 15.4961C128.766 15.4121 128.451 15.3701 128.129 15.3701C126.645 15.3701 125.903 16.3781 125.903 18.3941ZM132.98 23.6441C132.7 23.7281 132.378 23.8121 132.014 23.8961C131.65 23.9661 131.265 24.0291 130.859 24.0851C130.467 24.1411 130.061 24.1831 129.641 24.2111C129.235 24.2531 128.843 24.2741 128.465 24.2741C127.555 24.2741 126.743 24.1411 126.029 23.8751C125.315 23.6091 124.713 23.2311 124.223 22.7411C123.733 22.2371 123.355 21.6351 123.089 20.9351C122.837 20.2211 122.711 19.4231 122.711 18.5411C122.711 17.6451 122.823 16.8401 123.047 16.1261C123.271 15.3981 123.593 14.7821 124.013 14.2781C124.433 13.7741 124.944 13.3891 125.546 13.1231C126.162 12.8571 126.862 12.7241 127.646 12.7241C128.08 12.7241 128.465 12.7661 128.801 12.8501C129.151 12.9341 129.501 13.0531 129.851 13.2071V8.20908L132.98 7.70508V23.6441Z" fill="#414652"/>
<path d="M134.335 18.5621C134.335 17.5821 134.482 16.7281 134.776 16.0001C135.084 15.2581 135.483 14.6421 135.973 14.1521C136.463 13.6621 137.023 13.2911 137.653 13.0391C138.297 12.7871 138.955 12.6611 139.627 12.6611C141.195 12.6611 142.434 13.1441 143.344 14.1101C144.254 15.0621 144.709 16.4691 144.709 18.3311C144.709 18.5131 144.702 18.7161 144.688 18.9401C144.674 19.1501 144.66 19.3391 144.646 19.5071H137.548C137.618 20.1511 137.919 20.6621 138.451 21.0401C138.983 21.4181 139.697 21.6071 140.593 21.6071C141.167 21.6071 141.727 21.5581 142.273 21.4601C142.833 21.3481 143.288 21.2151 143.638 21.0611L144.058 23.6021C143.89 23.6861 143.666 23.7701 143.386 23.8541C143.106 23.9381 142.791 24.0081 142.441 24.0641C142.105 24.1341 141.741 24.1901 141.349 24.2321C140.957 24.2741 140.565 24.2951 140.173 24.2951C139.179 24.2951 138.311 24.1481 137.569 23.8541C136.841 23.5601 136.232 23.1611 135.742 22.6571C135.266 22.1391 134.909 21.5301 134.671 20.8301C134.447 20.1301 134.335 19.3741 134.335 18.5621ZM141.685 17.3651C141.671 17.0991 141.622 16.8401 141.538 16.5881C141.468 16.3361 141.349 16.1121 141.181 15.9161C141.027 15.7201 140.824 15.5591 140.572 15.4331C140.334 15.3071 140.033 15.2441 139.669 15.2441C139.319 15.2441 139.018 15.3071 138.766 15.4331C138.514 15.5451 138.304 15.6991 138.136 15.8951C137.968 16.0911 137.835 16.3221 137.737 16.5881C137.653 16.8401 137.59 17.0991 137.548 17.3651H141.685Z" fill="#414652"/>
<path d="M152.731 15.7271C152.451 15.6571 152.122 15.5871 151.744 15.5171C151.366 15.4331 150.96 15.3911 150.526 15.3911C150.33 15.3911 150.092 15.4121 149.812 15.4541C149.546 15.4821 149.343 15.5171 149.203 15.5591V24.0011H146.074V13.5431C146.634 13.3471 147.292 13.1651 148.048 12.9971C148.818 12.8151 149.672 12.7241 150.61 12.7241C150.778 12.7241 150.981 12.7381 151.219 12.7661C151.457 12.7801 151.695 12.8081 151.933 12.8501C152.171 12.8781 152.409 12.9201 152.647 12.9761C152.885 13.0181 153.088 13.0741 153.256 13.1441L152.731 15.7271Z" fill="#414652"/>
</svg>
