<svg width="148" height="32" viewBox="0 0 148 32" fill="none" xmlns="http://www.w3.org/2000/svg">
<path d="M0 6C0 2.68629 2.68629 0 6 0H26C29.3137 0 32 2.68629 32 6V26C32 29.3137 29.3137 32 26 32H6C2.68629 32 0 29.3137 0 26V6Z" fill="#FF444F"/>
<path d="M6 0C2.68629 0 0 2.68629 0 6V6.17428L29.9144 1.45264C28.8637 0.547333 27.4958 0 26 0H6Z" fill="#E12E3A"/>
<path d="M30.5319 2.06775L25.0444 32L26 32C29.3137 32 32 29.3137 32 26V6C32 4.49576 31.4465 3.12081 30.5319 2.06775Z" fill="#E12E3A"/>
<path d="M9.93921 19.0659C10.0419 19.0753 10.1585 19.0846 10.2892 19.0939C10.4292 19.0939 10.5925 19.0939 10.7792 19.0939C11.8712 19.0939 12.6785 18.8186 13.2012 18.268C13.7332 17.7173 13.9992 16.9566 13.9992 15.9859C13.9992 14.9686 13.7472 14.1986 13.2432 13.6759C12.7392 13.1533 11.9412 12.8919 10.8492 12.8919C10.6999 12.8919 10.5459 12.8966 10.3872 12.9059C10.2285 12.9059 10.0792 12.9153 9.93921 12.9339V19.0659ZM16.2532 15.9859C16.2532 16.8259 16.1225 17.5586 15.8612 18.1839C15.5999 18.8093 15.2265 19.3273 14.7412 19.7379C14.2652 20.1486 13.6819 20.4566 12.9912 20.6619C12.3005 20.8673 11.5259 20.9699 10.6672 20.9699C10.2752 20.9699 9.81787 20.9513 9.29521 20.9139C8.77254 20.8859 8.25921 20.8206 7.75521 20.7179V11.2679C8.25921 11.1746 8.78187 11.1139 9.32321 11.0859C9.87388 11.0486 10.3452 11.0299 10.7372 11.0299C11.5679 11.0299 12.3192 11.1233 12.9912 11.3099C13.6725 11.4966 14.2559 11.7906 14.7412 12.1919C15.2265 12.5933 15.5999 13.1066 15.8612 13.7319C16.1225 14.3573 16.2532 15.1086 16.2532 15.9859Z" fill="white"/>
<path d="M24.2453 11.1419V13.0039H21.3193V20.8439H19.1353V13.0039H16.2093V11.1419H24.2453Z" fill="white"/>
<path fill-rule="evenodd" clip-rule="evenodd" d="M48.3267 8.84642L47.539 13.3135H44.8048C42.2539 13.3135 39.8225 15.3802 39.3718 17.9311L39.1811 19.0169C38.7325 21.5678 40.4345 23.6345 42.9854 23.6345H45.2659C47.1251 23.6345 48.8962 22.1295 49.2232 20.2704L51.3234 8.36467L48.3267 8.84642ZM46.3866 19.849C46.286 20.4233 45.7689 20.8908 45.1946 20.8908H43.8092C42.6626 20.8908 41.8955 19.9601 42.0967 18.8115L42.2162 18.1344C42.4195 16.9879 43.5136 16.0551 44.6601 16.0551H47.0556L46.3866 19.849Z" fill="#414652"/>
<path d="M69.384 23.6353H72.222L74.0162 13.4567H71.1782L69.384 23.6353Z" fill="#414652"/>
<path d="M69.4785 14.7836L69.4789 14.7813C69.55 14.3789 69.621 13.9764 69.692 13.574C66.7799 12.8236 64.5116 13.5999 63.5879 13.9824C63.5879 13.9824 62.2704 21.4508 61.8848 23.6377H64.7246C65.1855 21.0241 65.6464 18.4098 66.1067 15.7962C66.5329 15.7113 67.9201 15.5782 69.2646 15.996C69.3358 15.5919 69.4071 15.1878 69.4785 14.7836Z" fill="#414652"/>
<path fill-rule="evenodd" clip-rule="evenodd" d="M58.1821 13.3124H55.975C53.8224 13.3124 51.7704 15.0564 51.391 17.209L50.9446 19.739C50.5652 21.8916 52.001 23.6356 54.1536 23.6356H58.8529L59.335 20.9002H54.9186C54.2018 20.9002 53.7218 20.3196 53.8497 19.6006L53.8644 19.5147H60.9846L61.3912 17.209C61.7705 15.0564 60.3348 13.3124 58.1821 13.3124ZM58.5427 16.991L58.5259 17.1377H54.292L54.315 17.0078C54.4428 16.2909 55.0968 15.66 55.8157 15.66H57.4695C58.1801 15.66 58.6601 16.2805 58.5427 16.991Z" fill="#414652"/>
<path d="M78.9487 20.1704C80.2373 17.8521 81.6579 14.8105 82.2499 13.4567H85.0921C84.1247 16.0289 81.9075 20.4045 79.7598 23.6353H76.9197C75.9339 20.5603 75.2972 16.2759 75.1758 13.4567H78.0159C78.0672 14.3763 78.4789 17.7874 78.9487 20.1704Z" fill="#414652"/>
<path d="M99.583 9.44808V12.2411H95.194V24.0011H91.918V12.2411H87.529V9.44808H99.583Z" fill="#414652"/>
<path d="M105.629 15.7271C105.349 15.6571 105.02 15.5871 104.642 15.5171C104.264 15.4331 103.858 15.3911 103.424 15.3911C103.228 15.3911 102.99 15.4121 102.71 15.4541C102.444 15.4821 102.241 15.5171 102.101 15.5591V24.0011H98.9724V13.5431C99.5324 13.3471 100.19 13.1651 100.946 12.9971C101.716 12.8151 102.57 12.7241 103.508 12.7241C103.676 12.7241 103.879 12.7381 104.117 12.7661C104.355 12.7801 104.593 12.8081 104.831 12.8501C105.069 12.8781 105.307 12.9201 105.545 12.9761C105.783 13.0181 105.986 13.0741 106.154 13.1441L105.629 15.7271Z" fill="#414652"/>
<path d="M110.798 21.8171C111.106 21.8171 111.4 21.8101 111.68 21.7961C111.96 21.7821 112.184 21.7611 112.352 21.7331V19.3601C112.226 19.3321 112.037 19.3041 111.785 19.2761C111.533 19.2481 111.302 19.2341 111.092 19.2341C110.798 19.2341 110.518 19.2551 110.252 19.2971C110 19.3251 109.776 19.3881 109.58 19.4861C109.384 19.5841 109.23 19.7171 109.118 19.8851C109.006 20.0531 108.95 20.2631 108.95 20.5151C108.95 21.0051 109.111 21.3481 109.433 21.5441C109.769 21.7261 110.224 21.8171 110.798 21.8171ZM110.546 12.6611C111.47 12.6611 112.24 12.7661 112.856 12.9761C113.472 13.1861 113.962 13.4871 114.326 13.8791C114.704 14.2711 114.97 14.7471 115.124 15.3071C115.278 15.8671 115.355 16.4901 115.355 17.1761V23.6861C114.907 23.7841 114.284 23.8961 113.486 24.0221C112.688 24.1621 111.722 24.2321 110.588 24.2321C109.874 24.2321 109.223 24.1691 108.635 24.0431C108.061 23.9171 107.564 23.7141 107.144 23.4341C106.724 23.1401 106.402 22.7621 106.178 22.3001C105.954 21.8381 105.842 21.2711 105.842 20.5991C105.842 19.9551 105.968 19.4091 106.22 18.9611C106.486 18.5131 106.836 18.1561 107.27 17.8901C107.704 17.6241 108.201 17.4351 108.761 17.3231C109.321 17.1971 109.902 17.1341 110.504 17.1341C110.91 17.1341 111.267 17.1551 111.575 17.1971C111.897 17.2251 112.156 17.2671 112.352 17.3231V17.0291C112.352 16.4971 112.191 16.0701 111.869 15.7481C111.547 15.4261 110.987 15.2651 110.189 15.2651C109.657 15.2651 109.132 15.3071 108.614 15.3911C108.096 15.4611 107.648 15.5661 107.27 15.7061L106.871 13.1861C107.053 13.1301 107.277 13.0741 107.543 13.0181C107.823 12.9481 108.124 12.8921 108.446 12.8501C108.768 12.7941 109.104 12.7521 109.454 12.7241C109.818 12.6821 110.182 12.6611 110.546 12.6611Z" fill="#414652"/>
<path d="M119.801 18.3941C119.801 19.3601 120.018 20.1371 120.452 20.7251C120.886 21.3131 121.53 21.6071 122.384 21.6071C122.664 21.6071 122.923 21.6001 123.161 21.5861C123.399 21.5581 123.595 21.5301 123.749 21.5021V15.8111C123.553 15.6851 123.294 15.5801 122.972 15.4961C122.664 15.4121 122.349 15.3701 122.027 15.3701C120.543 15.3701 119.801 16.3781 119.801 18.3941ZM126.878 23.6441C126.598 23.7281 126.276 23.8121 125.912 23.8961C125.548 23.9661 125.163 24.0291 124.757 24.0851C124.365 24.1411 123.959 24.1831 123.539 24.2111C123.133 24.2531 122.741 24.2741 122.363 24.2741C121.453 24.2741 120.641 24.1411 119.927 23.8751C119.213 23.6091 118.611 23.2311 118.121 22.7411C117.631 22.2371 117.253 21.6351 116.987 20.9351C116.735 20.2211 116.609 19.4231 116.609 18.5411C116.609 17.6451 116.721 16.8401 116.945 16.1261C117.169 15.3981 117.491 14.7821 117.911 14.2781C118.331 13.7741 118.842 13.3891 119.444 13.1231C120.06 12.8571 120.76 12.7241 121.544 12.7241C121.978 12.7241 122.363 12.7661 122.699 12.8501C123.049 12.9341 123.399 13.0531 123.749 13.2071V8.20908L126.878 7.70508V23.6441Z" fill="#414652"/>
<path d="M128.233 18.5621C128.233 17.5821 128.38 16.7281 128.674 16.0001C128.982 15.2581 129.381 14.6421 129.871 14.1521C130.361 13.6621 130.921 13.2911 131.551 13.0391C132.195 12.7871 132.853 12.6611 133.525 12.6611C135.093 12.6611 136.332 13.1441 137.242 14.1101C138.152 15.0621 138.607 16.4691 138.607 18.3311C138.607 18.5131 138.6 18.7161 138.586 18.9401C138.572 19.1501 138.558 19.3391 138.544 19.5071H131.446C131.516 20.1511 131.817 20.6621 132.349 21.0401C132.881 21.4181 133.595 21.6071 134.491 21.6071C135.065 21.6071 135.625 21.5581 136.171 21.4601C136.731 21.3481 137.186 21.2151 137.536 21.0611L137.956 23.6021C137.788 23.6861 137.564 23.7701 137.284 23.8541C137.004 23.9381 136.689 24.0081 136.339 24.0641C136.003 24.1341 135.639 24.1901 135.247 24.2321C134.855 24.2741 134.463 24.2951 134.071 24.2951C133.077 24.2951 132.209 24.1481 131.467 23.8541C130.739 23.5601 130.13 23.1611 129.64 22.6571C129.164 22.1391 128.807 21.5301 128.569 20.8301C128.345 20.1301 128.233 19.3741 128.233 18.5621ZM135.583 17.3651C135.569 17.0991 135.52 16.8401 135.436 16.5881C135.366 16.3361 135.247 16.1121 135.079 15.9161C134.925 15.7201 134.722 15.5591 134.47 15.4331C134.232 15.3071 133.931 15.2441 133.567 15.2441C133.217 15.2441 132.916 15.3071 132.664 15.4331C132.412 15.5451 132.202 15.6991 132.034 15.8951C131.866 16.0911 131.733 16.3221 131.635 16.5881C131.551 16.8401 131.488 17.0991 131.446 17.3651H135.583Z" fill="#414652"/>
<path d="M146.629 15.7271C146.349 15.6571 146.02 15.5871 145.642 15.5171C145.264 15.4331 144.858 15.3911 144.424 15.3911C144.228 15.3911 143.99 15.4121 143.71 15.4541C143.444 15.4821 143.241 15.5171 143.101 15.5591V24.0011H139.972V13.5431C140.532 13.3471 141.19 13.1651 141.946 12.9971C142.716 12.8151 143.57 12.7241 144.508 12.7241C144.676 12.7241 144.879 12.7381 145.117 12.7661C145.355 12.7801 145.593 12.8081 145.831 12.8501C146.069 12.8781 146.307 12.9201 146.545 12.9761C146.783 13.0181 146.986 13.0741 147.154 13.1441L146.629 15.7271Z" fill="#414652"/>
</svg>
