<svg width="128" height="32" viewBox="0 0 128 32" fill="none" xmlns="http://www.w3.org/2000/svg">
    <path
        d="M0 6C0 2.68629 2.68629 0 6 0H26C29.3137 0 32 2.68629 32 6V26C32 29.3137 29.3137 32 26 32H6C2.68629 32 0 29.3137 0 26V6Z"
        fill="#0364B9" />
    <path d="M6 0C2.68629 0 0 2.68629 0 6V6.17428L29.9144 1.45264C28.8637 0.547333 27.4958 0 26 0H6Z" fill="#0A559E" />
    <path
        d="M30.5319 2.06775L25.0444 32L26 32C29.3137 32 32 29.3137 32 26V6C32 4.49576 31.4465 3.12081 30.5319 2.06775Z"
        fill="#0A559E" />
    <path
        d="M7.41154 11.7348C7.55554 11.9988 7.71954 12.3268 7.90354 12.7188C8.09554 13.1028 8.29154 13.5228 8.49154 13.9788C8.69954 14.4268 8.90354 14.8868 9.10354 15.3588C9.30354 15.8308 9.49154 16.2748 9.66754 16.6908C9.84354 16.2748 10.0315 15.8308 10.2315 15.3588C10.4315 14.8868 10.6315 14.4268 10.8315 13.9788C11.0395 13.5228 11.2355 13.1028 11.4195 12.7188C11.6115 12.3268 11.7795 11.9988 11.9235 11.7348H13.6275C13.7075 12.2868 13.7795 12.9068 13.8435 13.5948C13.9155 14.2748 13.9755 14.9868 14.0235 15.7308C14.0795 16.4668 14.1275 17.2068 14.1675 17.9508C14.2155 18.6948 14.2555 19.3948 14.2875 20.0508H12.4635C12.4395 19.2428 12.4075 18.3628 12.3675 17.4108C12.3275 16.4588 12.2675 15.4988 12.1875 14.5308C12.0435 14.8668 11.8835 15.2388 11.7075 15.6468C11.5315 16.0548 11.3555 16.4628 11.1795 16.8708C11.0115 17.2788 10.8475 17.6708 10.6875 18.0468C10.5275 18.4148 10.3915 18.7308 10.2795 18.9948H8.97154C8.85954 18.7308 8.72354 18.4148 8.56354 18.0468C8.40354 17.6708 8.23554 17.2788 8.05954 16.8708C7.89154 16.4628 7.71954 16.0548 7.54354 15.6468C7.36754 15.2388 7.20754 14.8668 7.06354 14.5308C6.98354 15.4988 6.92354 16.4588 6.88354 17.4108C6.84354 18.3628 6.81154 19.2428 6.78754 20.0508H4.96354C4.99554 19.3948 5.03154 18.6948 5.07154 17.9508C5.11954 17.2068 5.16754 16.4668 5.21554 15.7308C5.27154 14.9868 5.33154 14.2748 5.39554 13.5948C5.46754 12.9068 5.54354 12.2868 5.62354 11.7348H7.41154Z"
        fill="white" />
    <path d="M21.4239 11.7348V13.3308H18.9159V20.0508H17.0439V13.3308H14.5359V11.7348H21.4239Z" fill="white" />
    <path
        d="M25.387 17.6028C25.387 17.3708 25.335 17.1668 25.231 16.9908C25.127 16.8068 24.947 16.6548 24.691 16.5348C24.435 16.4148 24.091 16.3228 23.659 16.2588C23.227 16.1948 22.683 16.1628 22.027 16.1628C22.115 15.4188 22.187 14.6628 22.243 13.8948C22.299 13.1268 22.343 12.4068 22.375 11.7348H26.875V13.2348H23.875C23.859 13.5228 23.839 13.8028 23.815 14.0748C23.799 14.3388 23.779 14.5708 23.755 14.7708C24.923 14.8508 25.783 15.1268 26.335 15.5988C26.895 16.0628 27.175 16.7108 27.175 17.5428C27.175 17.9268 27.107 18.2828 26.971 18.6108C26.835 18.9388 26.631 19.2228 26.359 19.4628C26.087 19.7028 25.743 19.8908 25.327 20.0268C24.919 20.1628 24.439 20.2308 23.887 20.2308C23.671 20.2308 23.443 20.2148 23.203 20.1828C22.971 20.1588 22.743 20.1228 22.519 20.0748C22.303 20.0348 22.107 19.9908 21.931 19.9428C21.755 19.8948 21.619 19.8468 21.523 19.7988L21.847 18.3228C22.047 18.4108 22.311 18.4988 22.639 18.5868C22.967 18.6668 23.359 18.7068 23.815 18.7068C24.367 18.7068 24.767 18.5988 25.015 18.3828C25.263 18.1588 25.387 17.8988 25.387 17.6028Z"
        fill="white" />
    <path fill-rule="evenodd" clip-rule="evenodd"
        d="M48.3267 8.50616L47.539 12.9732H44.8048C42.2539 12.9732 39.8225 15.0399 39.3718 17.5908L39.1811 18.6766C38.7325 21.2275 40.4345 23.2943 42.9854 23.2943H45.2659C47.1251 23.2943 48.8962 21.7892 49.2232 19.9301L51.3234 8.02441L48.3267 8.50616ZM46.3866 19.5088C46.286 20.0831 45.7689 20.5505 45.1946 20.5505H43.8092C42.6626 20.5505 41.8955 19.6198 42.0967 18.4712L42.2162 17.7942C42.4195 16.6476 43.5136 15.7149 44.6601 15.7149H47.0556L46.3866 19.5088Z"
        fill="#414652" />
    <path d="M69.384 23.295H72.222L74.0162 13.1165H71.1782L69.384 23.295Z" fill="#414652" />
    <path
        d="M69.4785 14.4434L69.4789 14.4412C69.55 14.0387 69.6211 13.6362 69.692 13.2337C66.7799 12.4834 64.5116 13.2596 63.5879 13.6421C63.5879 13.6421 62.2704 21.1106 61.8848 23.2974H64.7247C65.1855 20.6838 65.6464 18.0696 66.1067 15.456C66.5329 15.371 67.9201 15.2379 69.2646 15.6558C69.3358 15.2517 69.4071 14.8475 69.4785 14.4434Z"
        fill="#414652" />
    <path fill-rule="evenodd" clip-rule="evenodd"
        d="M58.1822 12.9722H55.975C53.8224 12.9722 51.7704 14.7161 51.391 16.8687L50.9446 19.3987C50.5652 21.5513 52.001 23.2953 54.1536 23.2953H58.8529L59.335 20.5599H54.9186C54.2018 20.5599 53.7218 19.9793 53.8497 19.2604L53.8644 19.1744H60.9846L61.3912 16.8687C61.7705 14.7161 60.3348 12.9722 58.1822 12.9722ZM58.5427 16.6508L58.5259 16.7975H54.292L54.315 16.6675C54.4428 15.9507 55.0969 15.3198 55.8157 15.3198H57.4695C58.1801 15.3198 58.6601 15.9402 58.5427 16.6508Z"
        fill="#414652" />
    <path
        d="M78.9487 19.8301C80.2373 17.5118 81.658 14.4702 82.2499 13.1165H85.0921C84.1247 15.6887 81.9075 20.0642 79.7598 23.295H76.9197C75.9339 20.2201 75.2972 15.9357 75.1758 13.1165H78.016C78.0672 14.0361 78.4789 17.4471 78.9487 19.8301Z"
        fill="#414652" />
    <path
        d="M92.6531 9.10779C92.9051 9.56979 93.1921 10.1438 93.5141 10.8298C93.8501 11.5018 94.1931 12.2368 94.5431 13.0348C94.9071 13.8188 95.2641 14.6238 95.6141 15.4498C95.9641 16.2758 96.2931 17.0528 96.6011 17.7808C96.9091 17.0528 97.2381 16.2758 97.5881 15.4498C97.9381 14.6238 98.2881 13.8188 98.6381 13.0348C99.0021 12.2368 99.3451 11.5018 99.6671 10.8298C100.003 10.1438 100.297 9.56979 100.549 9.10779H103.531C103.671 10.0738 103.797 11.1588 103.909 12.3628C104.035 13.5528 104.14 14.7988 104.224 16.1008C104.322 17.3888 104.406 18.6838 104.476 19.9858C104.56 21.2878 104.63 22.5128 104.686 23.6608H101.494C101.452 22.2468 101.396 20.7068 101.326 19.0408C101.256 17.3748 101.151 15.6948 101.011 14.0008C100.759 14.5888 100.479 15.2398 100.171 15.9538C99.8631 16.6678 99.5551 17.3818 99.2471 18.0958C98.9531 18.8098 98.6661 19.4958 98.3861 20.1538C98.1061 20.7978 97.8681 21.3508 97.6721 21.8128H95.3831C95.1871 21.3508 94.9491 20.7978 94.6691 20.1538C94.3891 19.4958 94.0951 18.8098 93.7871 18.0958C93.4931 17.3818 93.1921 16.6678 92.8841 15.9538C92.5761 15.2398 92.2961 14.5888 92.0441 14.0008C91.9041 15.6948 91.7991 17.3748 91.7291 19.0408C91.6591 20.7068 91.6031 22.2468 91.5611 23.6608H88.369C88.425 22.5128 88.4881 21.2878 88.5581 19.9858C88.6421 18.6838 88.7261 17.3888 88.8101 16.1008C88.9081 14.7988 89.0131 13.5528 89.125 12.3628C89.2511 11.1588 89.3841 10.0738 89.5241 9.10779H92.6531Z"
        fill="#414652" />
    <path d="M117.175 9.10779V11.9008H112.786V23.6608H109.51V11.9008H105.121V9.10779H117.175Z" fill="#414652" />
    <path
        d="M124.11 19.3768C124.11 18.9708 124.019 18.6138 123.837 18.3058C123.655 17.9838 123.34 17.7178 122.892 17.5078C122.444 17.2978 121.842 17.1368 121.086 17.0248C120.33 16.9128 119.378 16.8568 118.23 16.8568C118.384 15.5548 118.51 14.2318 118.608 12.8878C118.706 11.5438 118.783 10.2838 118.839 9.10779H126.714V11.7328H121.464C121.436 12.2368 121.401 12.7268 121.359 13.2028C121.331 13.6648 121.296 14.0708 121.254 14.4208C123.298 14.5608 124.803 15.0438 125.769 15.8698C126.749 16.6818 127.239 17.8158 127.239 19.2718C127.239 19.9438 127.12 20.5668 126.882 21.1408C126.644 21.7148 126.287 22.2118 125.811 22.6318C125.335 23.0518 124.733 23.3808 124.005 23.6188C123.291 23.8568 122.451 23.9758 121.485 23.9758C121.107 23.9758 120.708 23.9478 120.288 23.8918C119.882 23.8498 119.483 23.7868 119.091 23.7028C118.713 23.6328 118.37 23.5558 118.062 23.4718C117.754 23.3878 117.516 23.3038 117.348 23.2198L117.915 20.6368C118.265 20.7908 118.727 20.9448 119.301 21.0988C119.875 21.2388 120.561 21.3088 121.359 21.3088C122.325 21.3088 123.025 21.1198 123.459 20.7418C123.893 20.3498 124.11 19.8948 124.11 19.3768Z"
        fill="#414652" />
</svg>